<svg width="41" height="41" viewBox="0 0 41 41" fill="none" xmlns="http://www.w3.org/2000/svg">
<path d="M6.50187 0.472842C7.175 0.274554 8.44478 0.213542 12.9272 0.137277C16.0022 0.0762649 20.6071 0.015253 23.1772 0C25.7474 0 29.1896 0.0457589 30.8265 0.122024C33.0142 0.213542 34.0545 0.320313 34.7276 0.533854C35.2325 0.686384 36.0892 1.06771 36.6399 1.37277C37.2366 1.70833 38.0168 2.33371 38.6134 2.95908C39.2713 3.66071 39.7761 4.3776 40.0974 5.07924C40.3575 5.65885 40.6787 6.52827 40.7858 6.98586C40.9541 7.65699 41 10.2653 41 33.2972L40.6328 34.4412C40.434 35.0666 40.1433 35.8598 39.975 36.1953C39.7914 36.5309 39.3631 37.1868 39.0112 37.6443C38.6593 38.1019 38.0321 38.7273 37.619 39.0324C37.206 39.3374 36.5634 39.7493 36.181 39.9323C35.7985 40.1306 35.1866 40.3746 34.8041 40.4814C34.4216 40.6034 33.3966 40.7712 32.5093 40.8627C31.622 40.9542 30.3828 41 28.6082 40.9237V25.2437L30.903 25.2742C32.1728 25.2894 33.366 25.2437 33.5802 25.1674C33.9474 25.0301 33.978 24.9386 34.3146 22.1473C34.4981 20.561 34.6511 19.173 34.6511 19.0662C34.6511 18.9289 33.9321 18.8832 28.5317 18.8832L28.5776 16.3207C28.6082 14.1243 28.6541 13.6972 28.9142 13.1786C29.0825 12.8583 29.419 12.4769 29.6791 12.3397C30.0157 12.1719 30.7653 12.0804 34.8806 11.9431L34.9571 6.22321L33.6261 6.1317C32.8765 6.07069 31.2854 6.07068 30.0616 6.10119C28.394 6.1622 27.6291 6.25372 27.0019 6.48252C26.5429 6.6503 25.9616 6.89435 25.7015 7.01637C25.4414 7.15365 24.8754 7.59598 24.4164 7.99256C23.9728 8.40439 23.3761 9.12128 23.1007 9.57887C22.8254 10.0365 22.4888 10.7991 22.3358 11.2567C22.1216 11.9278 22.0452 12.7515 21.9534 18.8832H16.6754L16.5683 20.5915C16.4918 21.5372 16.4459 22.849 16.4459 23.4896C16.4459 24.1455 16.5224 24.8166 16.5989 24.9844C16.7366 25.2742 16.9049 25.2894 21.9534 25.2894V41L14.9619 40.9542C9.2709 40.9085 7.77164 40.8627 6.96082 40.6644C6.41007 40.5272 5.49216 40.1916 4.89552 39.917C4.16119 39.5662 3.48806 39.0629 2.73843 38.3307C1.95821 37.5528 1.49925 36.9427 1.10149 36.1191C0.780224 35.4937 0.41306 34.426 0.275373 33.7548C0.030597 32.6566 0 31.3601 0 7.82478L0.351866 6.60454C0.550746 5.93341 1.0097 4.91146 1.36157 4.31659C1.72873 3.73698 2.40187 2.89807 2.86082 2.48624C3.31978 2.05915 4.1306 1.49479 4.68134 1.22024C5.21679 0.945685 6.04291 0.610119 6.50187 0.472842Z" fill="#32518B"/>
</svg>
