<svg width="26" height="23" viewBox="0 0 26 23" fill="none" xmlns="http://www.w3.org/2000/svg">
<path d="M7.50011 0.998913C10.0411 0.809793 12.9525 3.52837 13.0001 3.99891C13.0477 4.46945 13.1508 21.9228 13.0001 21.9989C12.8494 22.075 7.42288 17.5207 3.49995 13C2.04766 11.0469 1.5108 9.09156 1.5001 7.49891C1.43643 4.42663 2.88426 1.30691 7.50011 0.998913Z" fill="#FF5794" stroke="#FF5794"/>
<path d="M18.5788 1.00941C16.0378 0.820291 13.1264 3.53887 13.0788 4.00941C13.0312 4.47995 12.9281 21.9333 13.0788 22.0094C13.2295 22.0855 18.656 17.5312 22.579 13.0105C24.0313 11.0574 24.5681 9.10206 24.5788 7.50941C24.6425 4.43713 23.1947 1.3174 18.5788 1.00941Z" fill="#FF5794" stroke="#FF5794"/>
</svg>
