<svg width="144" height="160" viewBox="0 0 144 160" fill="none" xmlns="http://www.w3.org/2000/svg">
<rect width="144" height="160" fill="#E9ECEF"/>
<path d="M77.25 73H77.2675M63.25 64.25H82.5C83.8924 64.25 85.2277 64.8031 86.2123 65.7877C87.1969 66.7723 87.75 68.1076 87.75 69.5V88.75M86.252 94.1733C85.7636 94.6733 85.1799 95.0704 84.5355 95.3412C83.8911 95.612 83.199 95.751 82.5 95.75H61.5C60.1076 95.75 58.7723 95.1969 57.7877 94.2123C56.8031 93.2277 56.25 91.8924 56.25 90.5V69.5C56.25 68.0212 56.8608 66.686 57.8425 65.7322M56.25 87L65 78.25C66.624 76.6872 68.626 76.6872 70.25 78.25L79 87M79.5775 80.5915C80.582 80.497 81.5987 80.882 82.5 81.75L87.75 87M56.25 64.25L87.75 95.75" stroke="#C9C9C9" stroke-width="2" stroke-linecap="round" stroke-linejoin="round"/>
</svg>

