<svg width="41" height="41" viewBox="0 0 41 41" fill="none" xmlns="http://www.w3.org/2000/svg">
<path d="M0 36V20.5V5C0 2.23858 2.23858 0 5 0H36C38.7614 0 41 2.23858 41 5V36C41 38.7614 38.7614 41 36 41H5C2.23858 41 0 38.7614 0 36Z" fill="#1DA1F2"/>
<path d="M23.7432 10.29C24.0555 10.1379 24.576 9.9377 24.9043 9.84961C25.2807 9.75352 25.7932 9.69746 26.2656 9.68945C26.7781 9.68945 27.2346 9.7375 27.667 9.84961C28.0193 9.9377 28.5398 10.1299 28.8281 10.266C29.1164 10.4102 29.5969 10.7305 30.4697 11.4432L31.1104 11.275C31.4627 11.1869 32.0232 11.0107 32.3516 10.8746C32.6799 10.7465 33.1604 10.5303 33.4086 10.4021C33.6648 10.274 33.8971 10.1859 33.9291 10.21C33.9691 10.234 33.857 10.5143 33.6969 10.8346C33.5367 11.1469 33.2244 11.6273 33.0162 11.8916C32.8 12.1559 32.4236 12.5322 32.1754 12.7324C31.9271 12.9326 31.759 13.1088 31.815 13.1248C31.8711 13.1408 32.1434 13.1088 32.4316 13.0527C32.7199 12.9967 33.3285 12.8285 33.793 12.6764C34.2574 12.5322 34.6418 12.4201 34.6578 12.4281C34.6738 12.4441 34.4656 12.7244 34.2094 13.0527C33.9451 13.3811 33.4727 13.9096 33.1443 14.2219C32.816 14.5262 32.4156 14.8865 31.9432 15.2549L31.9512 16.1357C31.9512 16.6242 31.9111 17.3209 31.8711 17.6973C31.823 18.0736 31.7109 18.7383 31.6229 19.1787C31.5348 19.6191 31.3025 20.468 31.1023 21.0605C30.9021 21.6531 30.5258 22.574 30.2695 23.1025C30.0133 23.6311 29.5488 24.4398 29.2445 24.9043C28.9482 25.3687 28.4277 26.0734 28.0914 26.4658C27.7631 26.8582 27.2105 27.4588 26.8582 27.7871C26.5139 28.1154 26.0094 28.5559 25.7451 28.7561C25.4809 28.9643 24.9604 29.3246 24.584 29.5729C24.2076 29.8131 23.4869 30.2135 22.9824 30.4617C22.4779 30.702 21.6691 31.0303 21.1807 31.1904C20.6922 31.3506 19.8674 31.5668 19.3389 31.6709C18.8104 31.783 17.8334 31.9111 17.1768 31.9672C16.2398 32.0393 15.7113 32.0393 14.7744 31.9672C14.1178 31.9191 13.1568 31.783 12.6523 31.6789C12.1479 31.5748 11.3391 31.3586 10.8506 31.1984C10.3621 31.0303 9.62539 30.742 9.20898 30.5418C8.79258 30.3416 8.21602 30.0453 7.40723 29.5889L8.76855 29.5408C9.51328 29.5088 10.4342 29.4207 10.8105 29.3486C11.1869 29.2766 11.8195 29.1084 12.2119 28.9723C12.6043 28.8361 13.2609 28.5639 13.6533 28.3637C14.0457 28.1715 14.6463 27.8191 15.5752 27.1945L15.0146 27.0984C14.7104 27.0424 14.2939 26.9623 14.0938 26.9062C13.8936 26.8582 13.4451 26.658 13.0928 26.4818C12.7004 26.2736 12.2359 25.9453 11.8916 25.617C11.5873 25.3287 11.1789 24.8562 10.9947 24.576C10.8105 24.2957 10.5943 23.8793 10.3461 23.2627L11.0428 23.2947C11.4191 23.3107 11.9396 23.3027 12.1879 23.2707C12.4441 23.2467 12.6523 23.1986 12.6523 23.1586C12.6523 23.1266 12.5002 23.0545 12.316 22.9904C12.1238 22.9344 11.7875 22.7902 11.5713 22.6861C11.3471 22.574 10.9547 22.3258 10.6904 22.1416C10.4262 21.9574 10.0578 21.6371 9.86563 21.4289C9.68145 21.2287 9.39316 20.8523 9.23301 20.6041C9.07285 20.3479 8.84063 19.8674 8.72051 19.5391C8.60039 19.2107 8.46426 18.6342 8.41621 18.2578C8.36816 17.8814 8.34414 17.5691 8.35215 17.5531C8.36016 17.5451 8.56836 17.6252 8.80859 17.7293C9.04883 17.8414 9.46523 17.9855 9.72949 18.0576C9.99375 18.1217 10.3461 18.1777 10.8105 18.1777L10.3861 17.8334C10.1619 17.6412 9.81758 17.2889 9.64141 17.0486C9.45723 16.8084 9.21699 16.4561 9.10488 16.2559C8.99277 16.0557 8.80059 15.6072 8.68047 15.2549C8.48828 14.6943 8.45625 14.4861 8.45625 13.6133C8.44824 12.9166 8.48828 12.4682 8.58438 12.1318C8.65645 11.8676 8.80859 11.4432 9.12891 10.7305L10.1459 11.7555C10.7145 12.324 11.4752 13.0127 11.8516 13.301C12.2279 13.5812 12.8205 13.9896 13.1729 14.2059C13.5252 14.4221 14.2459 14.8064 14.7744 15.0627C15.3029 15.3109 16.0797 15.6312 16.4961 15.7674C16.9125 15.9115 17.5451 16.0957 17.8975 16.1758C18.2498 16.2559 18.9145 16.384 19.3789 16.448C19.8434 16.5201 20.3479 16.5762 20.7803 16.5762L20.7242 16.1918C20.6922 15.9836 20.6682 15.5912 20.6682 15.3109C20.6602 15.0387 20.7162 14.5342 20.7803 14.1979C20.8523 13.8295 21.0525 13.277 21.2607 12.8525C21.4529 12.4602 21.7652 11.9557 21.9494 11.7314C22.1416 11.5072 22.4939 11.1629 22.7342 10.9547C22.9824 10.7465 23.4309 10.4502 23.7432 10.29Z" fill="white"/>
</svg>
