<svg width="40" height="41" viewBox="0 0 40 41" fill="none" xmlns="http://www.w3.org/2000/svg">
<path d="M2.84759 0.10506L3.77588 0.0423376C4.29021 0.00470417 12.4692 -0.00784029 21.9528 0.00470417C31.4364 0.00470417 39.2391 0.0297931 39.3018 0.0297931C39.352 0.0423376 39.3896 5.64971 39.3896 24.9431L28.6641 35.6686H20.5102L15.4548 41L12.8957 40.9875C11.5033 40.9749 10.2488 40.9624 10.1234 40.9498C9.92267 40.9373 9.91012 40.724 9.91012 35.6686H0V7.12996L2.84759 0.10506Z" fill="#64449E"/>
<path d="M6.52313 29.1454V16.4128V3.68018H35.6263V23.1241L29.4168 29.1454H19.6948L18.478 30.425C17.8006 31.1275 16.6089 32.3568 14.4136 34.6023L14.4261 31.9428C14.4261 29.2709 14.4261 29.2709 14.1502 29.2082C13.9871 29.1705 12.2058 29.1454 6.52313 29.1454Z" fill="white"/>
<path d="M16.1698 15.9237C16.1698 11.3325 16.1823 10.8307 16.3705 10.6425C16.5461 10.4794 16.8472 10.4543 19.6321 10.5171L19.6948 21.368H18.0013C16.6089 21.368 16.2952 21.3304 16.2451 21.1799C16.2074 21.0795 16.1823 18.7086 16.1698 15.9237Z" fill="#64449E"/>
<path d="M25.9419 15.9864C25.9168 11.3826 25.9419 10.5923 26.105 10.5422C26.1928 10.5045 26.8828 10.4669 27.6354 10.4669C28.3756 10.4543 29.0655 10.4794 29.1659 10.5171C29.3289 10.5672 29.354 11.2948 29.354 21.368H25.967L25.9419 15.9864Z" fill="#64449E"/>
</svg>
